<svg version="1.1" id="Layer_1" xmlns="http://www.w3.org/2000/svg" xmlns:xlink="http://www.w3.org/1999/xlink" x="0px" y="0px" viewBox="0 0 500 500" style="width: 158px;" xml:space="preserve" data-imageid="balloon-43" imageName="Balloon" class="illustrations_image">
<style type="text/css">
	.st0_balloon-43{fill:#68E1FD;}
	.st1_balloon-43{fill:#70CC40;}
	.st2_balloon-43{fill:#093F68;}
	.st3_balloon-43{fill:#F56132;}
	.st4_balloon-43{fill:#FFFFFF;}
</style>
<g id="balloon-1_balloon-43">
	<path class="st0_balloon-43 targetColor" d="M213.4,400.9c-0.4,0-0.8-0.1-1.1-0.4c-0.8-0.6-1-1.8-0.3-2.6c18.9-24.7,20.5-52.2,4.9-81.9&#10;&#9;&#9;c-11.8-22.4-29.5-37.6-29.7-37.7c-0.8-0.6-1-1.8-0.3-2.6c0.6-0.8,1.8-1,2.6-0.3c0,0,0.1,0.1,0.1,0.1c0.7,0.6,72.6,62.9,25.4,124.7&#10;&#9;&#9;C214.5,400.6,214,400.9,213.4,400.9z" style="fill: rgb(104, 225, 253);"/>
	<polygon class="st1_balloon-43" points="203.2,286 188.3,293.5 181.5,272.9 190.8,268.2 &#9;"/>
	<path class="st2_balloon-43" d="M188.3,295.3c-0.2,0-0.5,0-0.7-0.1c-0.5-0.2-0.8-0.6-1-1.1l-6.9-20.6c-0.3-0.9,0.1-1.8,0.9-2.2l9.3-4.7&#10;&#9;&#9;c0.8-0.4,1.8-0.2,2.3,0.6l12.4,17.8c0.3,0.4,0.4,1,0.3,1.5c-0.1,0.5-0.5,1-1,1.2l-14.8,7.4C188.9,295.3,188.6,295.3,188.3,295.3z&#10;&#9;&#9; M183.7,273.8l5.7,17l11-5.5l-10.3-14.8L183.7,273.8z"/>
	
		<ellipse transform="matrix(0.8938 -0.4485 0.4485 0.8938 -72.8461 90.0472)" class="st1_balloon-43" cx="153.7" cy="198.8" rx="72.2" ry="85.5"/>
	<path class="st2_balloon-43" d="M163.9,283.6c-29.7,0-60.2-19.4-76.4-51.6c-21.6-43-9.5-92.9,27.1-111.3s83.8,1.8,105.4,44.8l0,0&#10;&#9;&#9;c10.4,20.8,13.4,43.8,8.4,64.8s-17.6,37.6-35.4,46.5C183.8,281.3,173.9,283.6,163.9,283.6z M143.5,117.7c-9.5,0-18.9,2.2-27.3,6.4&#10;&#9;&#9;c-34.7,17.4-46.1,65.1-25.4,106.3s65.7,60.6,100.4,43.2c16.8-8.4,28.6-24,33.4-44.1s2-42.2-8-62.2l0,0&#10;&#9;&#9;C201.1,136.3,171.8,117.7,143.5,117.7z"/>
</g>
<g id="balloon-2_balloon-43">
	<path class="st0_balloon-43 targetColor" d="M222,427c-0.2,0-0.3,0-0.5,0c-1-0.3-1.6-1.3-1.3-2.2c0,0,0,0,0,0c19.9-78.7,3.2-155.5,3-156.2&#10;&#9;&#9;c-0.2-1,0.4-2,1.4-2.2c1-0.2,2,0.4,2.2,1.4c0.2,0.8,17,78.4-3.1,158C223.5,426.4,222.8,427,222,427z" style="fill: rgb(104, 225, 253);"/>
	<polygon class="st0_balloon-43 targetColor" points="232.4,273.3 214.9,273 218.6,250.4 229.6,250.6 &#9;" style="fill: rgb(104, 225, 253);"/>
	<path class="st2_balloon-43" d="M232.4,275.2L232.4,275.2l-17.5-0.4c-0.5,0-1-0.3-1.4-0.7c-0.3-0.4-0.5-1-0.4-1.5l3.7-22.6&#10;&#9;&#9;c0.1-0.9,0.9-1.6,1.9-1.6l11,0.2c0.9,0,1.7,0.7,1.8,1.6l2.8,22.7c0.1,0.5-0.1,1.1-0.5,1.5C233.5,275,233,275.2,232.4,275.2z&#10;&#9;&#9; M217.1,271.2l13.2,0.3l-2.3-19l-7.8-0.2L217.1,271.2z"/>
	
		<ellipse transform="matrix(2.076797e-02 -0.9998 0.9998 2.076797e-02 56.8685 393.3645)" class="st0_balloon-43 targetColor" cx="229.2" cy="167.7" rx="90.1" ry="76.1" style="fill: rgb(104, 225, 253);"/>
	<path class="st2_balloon-43" d="M228.7,259.6h-1.4c-43-0.9-77.1-42.9-76.1-93.5s36.8-91.1,79.9-90.3c20.9,0.4,40.3,10.4,54.7,28.2&#10;&#9;&#9;s21.9,40.9,21.4,65.3C306.2,219.4,271.1,259.6,228.7,259.6z M229.7,79.4c-40.3,0-73.7,38.6-74.7,86.7c-1,48.6,31.5,88.9,72.4,89.8&#10;&#9;&#9;h1.3c40.4,0,73.8-38.6,74.8-86.7h1.9h-1.9c0.5-23.6-6.8-46-20.6-62.9s-32.1-26.4-51.9-26.8L229.7,79.4z"/>
</g>
<g id="balloon-3_balloon-43">
	<path class="st0_balloon-43 targetColor" d="M244.4,393.5c-0.4,0-0.8-0.1-1.2-0.4c-0.2-0.2-20.6-17.3-11.7-46.4c17.4-57.2,53.4-67.7,54.9-68.1&#10;&#9;&#9;c1-0.3,2,0.3,2.3,1.3c0.3,1-0.3,2-1.3,2.3c-0.4,0.1-35.6,10.5-52.4,65.6c-8.1,26.8,10.3,42.3,10.5,42.5c0.8,0.6,0.9,1.8,0.3,2.6&#10;&#9;&#9;C245.4,393.2,244.9,393.4,244.4,393.5L244.4,393.5z" style="fill: rgb(104, 225, 253);"/>
	<polygon class="st3_balloon-43" points="284.2,293.5 271.4,283 287.3,268.3 295.4,274.9 &#9;"/>
	<path class="st2_balloon-43" d="M284.2,295.3c-0.4,0-0.8-0.1-1.2-0.4l-12.9-10.5c-0.4-0.3-0.7-0.8-0.7-1.4c0-0.5,0.2-1.1,0.6-1.4l16-14.7&#10;&#9;&#9;c0.7-0.6,1.7-0.7,2.4-0.1l8.1,6.6c0.7,0.6,0.9,1.6,0.4,2.4l-11.2,18.6c-0.3,0.5-0.7,0.8-1.3,0.9&#10;&#9;&#9;C284.4,295.3,284.3,295.3,284.2,295.3z M274.2,282.9l9.5,7.8l9.2-15.4l-5.6-4.6L274.2,282.9z"/>
	
		<ellipse transform="matrix(0.6322 -0.7748 0.7748 0.6322 -38.3797 344.4553)" class="st3_balloon-43" cx="343.6" cy="212.7" rx="85.5" ry="72.2"/>
	<path class="st2_balloon-43" d="M330.8,294.9c-15.4,0-30.3-4.7-42.4-14.6c-15.4-12.5-24.1-31.4-24.4-53.1s7.5-43.4,22.2-61.4&#10;&#9;&#9;c30.4-37.3,80.9-46.6,112.6-20.8c15.4,12.6,24,31.4,24.4,53.1s-7.5,43.4-22.2,61.4C382.2,282.5,355.7,294.9,330.8,294.9z&#10;&#9;&#9; M356.4,134.1c-23.9,0-49.3,11.9-67.3,34.1c-14.1,17.4-21.8,38.3-21.4,59s8.5,38.4,23.1,50.3c30.1,24.6,78.3,15.4,107.4-20.3&#10;&#9;&#9;c14.2-17.4,21.8-38.3,21.4-59s-8.5-38.4-23.1-50.3C385,138.5,371,134.1,356.4,134.1z"/>
</g>
<g id="ribbon_balloon-43">
	<path class="st4_balloon-43" d="M228.5,357.3c-0.5-0.4-14.4-8.6-15.3-5.9s-2.4,17.7,2.1,16.8s13.5-6.5,13.5-6.5L228.5,357.3z"/>
	<path class="st2_balloon-43" d="M214.9,370c-1,0-2-0.4-2.6-1.2c-3.2-3.6-1.6-15.9-0.9-18c0.3-0.8,0.9-1.4,1.7-1.7c3.9-1.3,16.4,6.6,16.5,6.7&#10;&#9;&#9;c0.4,0.3,0.7,0.8,0.7,1.3l0.3,4.3c0.1,0.7-0.3,1.3-0.9,1.7c-0.4,0.2-9.4,5.9-14.1,6.8C215.4,370,215.1,370.1,214.9,370z&#10;&#9;&#9; M214.7,352.7c-1.2,4.9-0.6,13,0.4,13.7c2.9-0.6,8.8-4,11.8-5.8l-0.2-2.3C224,356.7,217.2,353.1,214.7,352.7z"/>
	<path class="st4_balloon-43" d="M234.2,357.3c0.5-0.4,14.4-8.6,15.3-5.9s2.4,17.7-2.1,16.8s-13.5-6.5-13.5-6.5L234.2,357.3z"/>
	<path class="st2_balloon-43" d="M247.8,370c-0.2,0-0.5,0-0.7-0.1c-4.7-0.9-13.8-6.6-14.1-6.8c-0.6-0.4-0.9-1-0.9-1.7l0.3-4.3&#10;&#9;&#9;c0-0.5,0.3-1,0.7-1.3c0.1-0.1,12.6-8,16.5-6.7c0.8,0.2,1.5,0.9,1.7,1.7c0.7,2.1,2.4,14.4-0.9,18C249.8,369.6,248.8,370,247.8,370z&#10;&#9;&#9; M235.8,360.6c3,1.8,8.9,5.1,11.9,5.7c0.8-0.7,1.4-8.8,0.2-13.7c-2.5,0.4-9.3,4-12,5.7L235.8,360.6z"/>
	<path class="st0_balloon-43 targetColor" d="M227.7,354h5.6c0.9,0,1.7,0.8,1.7,1.7v7.5c0,0.9-0.8,1.7-1.7,1.7h-5.6c-0.9,0-1.7-0.8-1.7-1.7v-7.5&#10;&#9;&#9;C226,354.8,226.7,354,227.7,354z" style="fill: rgb(104, 225, 253);"/>
	<path class="st2_balloon-43" d="M231.8,366.8h-2.7c-2.8,0-5-2.2-5-5v-4.6c0-2.8,2.2-5,5-5h2.7c2.8,0,5,2.2,5,5v4.6&#10;&#9;&#9;C236.8,364.5,234.6,366.8,231.8,366.8z M229.1,355.9c-0.7,0-1.3,0.6-1.3,1.3l0,0v4.6c0,0.7,0.6,1.3,1.3,1.3l0,0h2.7&#10;&#9;&#9;c0.7,0,1.3-0.6,1.3-1.3v-4.6c0-0.7-0.6-1.3-1.3-1.3H229.1z"/>
</g>
</svg>