<svg id="_0530_search_engine" data-name="0530_search_engine" xmlns="http://www.w3.org/2000/svg" xmlns:xlink="http://www.w3.org/1999/xlink" viewBox="0 0 500 500" data-imageid="search-engine-1-12" imageName="Search Engine 1" class="illustrations_image" style="width: 158px;"><defs><style>.cls-1_search-engine-1-12{fill:#dd6f31;}.cls-2_search-engine-1-12{fill:url(#linear-gradient);}.cls-3_search-engine-1-12{fill:url(#linear-gradient-2-search-engine-1-12);}.cls-4_search-engine-1-12{fill:url(#linear-gradient-3-search-engine-1-12);}.cls-5_search-engine-1-12{fill:#68e1fd;}.cls-6_search-engine-1-12{fill:#f4f4f4;}.cls-7_search-engine-1-12{fill:#bababc;}.cls-8_search-engine-1-12{fill:#ffc745;}.cls-9_search-engine-1-12{fill:#c1272d;}.cls-10_search-engine-1-12{fill:#ffeed9;}.cls-11_search-engine-1-12,.cls-14_search-engine-1-12{fill:#34323d;}.cls-12_search-engine-1-12{fill:#662d91;}.cls-13_search-engine-1-12{fill:#66c652;}.cls-14_search-engine-1-12{opacity:0.2;}</style><linearGradient id="linear-gradient-search-engine-1-12" x1="145.12" y1="340.62" x2="182.43" y2="311.83" gradientUnits="userSpaceOnUse"><stop offset="0" stop-color="#dd6f31"/><stop offset="1" stop-color="#34323d"/></linearGradient><linearGradient id="linear-gradient-2-search-engine-1-12" x1="249.99" y1="390.44" x2="299.28" y2="335.27" xlink:href="#linear-gradient-search-engine-1-12"/><linearGradient id="linear-gradient-3-search-engine-1-12" x1="394.53" y1="310.87" x2="440.83" y2="259.07" xlink:href="#linear-gradient-search-engine-1-12"/></defs><g id="background_search-engine-1-12"><path class="cls-1_search-engine-1-12" d="M242.5,419.32,25.88,291.3c-6.9-3.88-12.81-10.23-6.09-14.4l217.4-125.29c3.26-2,8.21-3.35,11.53-1.42l227.39,132c6.89,4,8.13,15.19,1.23,19.19L271.05,419.11A28.77,28.77,0,0,1,242.5,419.32Z"/><path class="cls-2_search-engine-1-12" d="M229.33,276.5l-3.78,5.55-95.4,47.87,11.16,23.4,92.6-59C230.31,287.77,234.88,281.64,229.33,276.5Z"/><path class="cls-3_search-engine-1-12" d="M297.28,352.05l-13.39-2.63-60.32,38.27,34.32,17.78,48.8-46.18C303.09,352.71,302.83,357.2,297.28,352.05Z"/><path class="cls-4_search-engine-1-12" d="M436.15,270.09l-3.77,5.55-62.46,32.83,26.84,15,48.7-39.69C441.86,277.24,441.7,275.24,436.15,270.09Z"/></g><g id="search_engine_search-engine-1-12" data-name="search engine"><polyline class="cls-5_search-engine-1-12 targetColor" points="232 92.67 240.03 96.22 232.31 99.62 230.45 95.63" style="fill: rgb(104, 225, 253);"/><path class="cls-5_search-engine-1-12 targetColor" d="M158.75,328.84l66.78-38.92a17.78,17.78,0,0,0,8.84-15.38l2.16-176.78c0-4.64-7.2-7-11.2-4.64l-69.09,40.82a11.43,11.43,0,0,0-5.62,9.85V324.17A5.41,5.41,0,0,0,158.75,328.84Z" style="fill: rgb(104, 225, 253);"/><polyline class="cls-5_search-engine-1-12 targetColor" points="153.4 328.89 162.13 333.51 161.12 327.42 155.06 326.33" style="fill: rgb(104, 225, 253);"/><path class="cls-6_search-engine-1-12" d="M167.12,333.27l66.79-38.92A17.8,17.8,0,0,0,242.75,279V100.5a4.73,4.73,0,0,0-7.14-4.07l-71,41.94a11.45,11.45,0,0,0-5.62,9.85V328.6A5.41,5.41,0,0,0,167.12,333.27Z"/><polygon class="cls-5_search-engine-1-12 targetColor" points="163.23 159.12 239.31 115.48 239.31 271.61 163.23 315.6 163.23 159.12" style="fill: rgb(104, 225, 253);"/><ellipse class="cls-7_search-engine-1-12" cx="208.36" cy="300.09" rx="4.74" ry="3.51" transform="translate(-131.92 433.07) rotate(-76.57)"/><path class="cls-7_search-engine-1-12" d="M211.2,123h0a1.73,1.73,0,0,1-.85,1.48l-14.7,8.45a1.7,1.7,0,0,1-2.55-1.48v-.36a1.71,1.71,0,0,1,.88-1.49l14.7-8.08A1.7,1.7,0,0,1,211.2,123Z"/><ellipse class="cls-7_search-engine-1-12" cx="217.95" cy="118.5" rx="2.27" ry="1.66" transform="translate(31.18 281.78) rotate(-69.69)"/><path class="cls-8_search-engine-1-12" d="M176.73,162.79v31.37a2.82,2.82,0,0,1-1.42,2.43l-51,28.86A2.8,2.8,0,0,1,120.1,223V193.26a2.82,2.82,0,0,1,1.36-2.4l51-30.46A2.79,2.79,0,0,1,176.73,162.79Z"/><path class="cls-8_search-engine-1-12" d="M262,179.22v1.62a15.66,15.66,0,0,1-7.76,13.51l-91.51,53.38a9.53,9.53,0,0,1-14.34-8.23v-1.67a16,16,0,0,1,8-13.88L248,171.14A9.33,9.33,0,0,1,262,179.22Z"/><path class="cls-9_search-engine-1-12" d="M248,171.14,236.15,178v26.92l18.11-10.56A15.66,15.66,0,0,0,262,180.84v-1.62A9.33,9.33,0,0,0,248,171.14Z"/><ellipse class="cls-9_search-engine-1-12" cx="244.6" cy="183.02" rx="6.16" ry="4.62" transform="translate(-16.71 341.26) rotate(-68)"/><path class="cls-6_search-engine-1-12" d="M243.61,190.19a4.68,4.68,0,0,1-1.77-.34,5.28,5.28,0,0,1-3.07-3.71,8.9,8.9,0,0,1,3.81-9.42,5.32,5.32,0,0,1,4.78-.54c3,1.21,4.16,5.25,2.64,9h0C248.77,188.24,246.14,190.19,243.61,190.19Zm1.95-11.94a3.37,3.37,0,0,0-1.73.53,6.49,6.49,0,0,0-2.73,6.74,2.93,2.93,0,0,0,1.64,2.09c1.72.7,4-.82,5-3.32h0c1-2.49.41-5.18-1.3-5.87A2.52,2.52,0,0,0,245.56,178.25Z"/><ellipse class="cls-9_search-engine-1-12" cx="172.77" cy="163.8" rx="9.32" ry="6.46" transform="translate(-35.08 279.89) rotate(-72.66)"/><path class="cls-10_search-engine-1-12" d="M192.72,158.93l30.92-17.73,4.39-2.52c2-1.16.2-4.28-1.82-3.12l-30.92,17.73-4.39,2.51c-2,1.16-.2,4.29,1.82,3.13Z"/><path class="cls-10_search-engine-1-12" d="M192.72,169.05l30.92-17.73L228,148.8c2-1.15.2-4.28-1.82-3.12l-30.92,17.73-4.39,2.52c-2,1.16-.2,4.28,1.82,3.12Z"/><path class="cls-10_search-engine-1-12" d="M192.72,179.18l30.92-17.74,4.39-2.51c2-1.16.2-4.29-1.82-3.13l-30.92,17.74-4.39,2.51c-2,1.16-.2,4.29,1.82,3.13Z"/><path class="cls-10_search-engine-1-12" d="M131.67,199.53l30.92-17.73,4.39-2.52c2-1.16.2-4.28-1.82-3.12l-30.92,17.73-4.39,2.52c-2,1.15-.2,4.28,1.82,3.12Z"/><path class="cls-10_search-engine-1-12" d="M131.67,209.65l30.92-17.73L167,189.4c2-1.15.2-4.28-1.82-3.12L134.24,204l-4.39,2.52c-2,1.16-.2,4.28,1.82,3.12Z"/><path class="cls-10_search-engine-1-12" d="M174.6,259.23l19.17-10.71L196.5,247a3.62,3.62,0,1,0-3.65-6.25l-19.17,10.7L171,253a3.65,3.65,0,0,0-1.3,5,3.7,3.7,0,0,0,4.95,1.3Z"/><path class="cls-10_search-engine-1-12" d="M171.36,270.17,187,261.46l24.64-13.76,5.74-3.2a1.36,1.36,0,0,0-1.37-2.34l-15.6,8.71-24.65,13.76-5.74,3.2a1.36,1.36,0,0,0,1.37,2.34Z"/><path class="cls-6_search-engine-1-12" d="M248.54,187.2l4.7,3.19.67.45a1.81,1.81,0,0,0,2.47-.65,1.85,1.85,0,0,0-.65-2.47l-4.7-3.19-.67-.45a1.82,1.82,0,0,0-1.39-.18,1.87,1.87,0,0,0-1.08.83,1.85,1.85,0,0,0,.65,2.47Z"/><rect class="cls-6_search-engine-1-12" x="157.58" y="218.14" width="78.21" height="1.2" transform="translate(-81.56 123.26) rotate(-29.1)"/><path class="cls-10_search-engine-1-12" d="M174.89,282.26l19.17-10.7L196.8,270a3.61,3.61,0,0,0-3.65-6.24L174,274.49,171.24,276a3.61,3.61,0,1,0,3.65,6.24Z"/><path class="cls-10_search-engine-1-12" d="M171.66,293.21l15.6-8.71,24.65-13.76,5.73-3.2c1.53-.85.16-3.2-1.36-2.35l-15.61,8.72L176,287.67l-5.73,3.2c-1.53.85-.16,3.19,1.37,2.34Z"/></g><g id="character_search-engine-1-12"><path class="cls-1_search-engine-1-12" d="M225.55,242.5l-11.06,39.9s.94,10.81,15,6.32l9.59-42.09S237,237.28,225.55,242.5Z"/><path class="cls-11_search-engine-1-12" d="M242.2,223.73l-7,23.64s-6,3.07-7.86-2.78l5.72-23.06Z"/><path class="cls-11_search-engine-1-12" d="M242.2,223.73a19.74,19.74,0,0,1-11.13-.44c-14-4.79-19.47-24.51-12.48-44.9S242,145.78,256,150.57h0c7,2.39,12,8.6,14.28,17.48,2.07,8.26,1.44,18-1.79,27.42s-8.7,17.51-15.4,22.77A28.59,28.59,0,0,1,242.2,223.73ZM246.73,158c-8,1.92-16.4,10.92-20.54,23-5.34,15.59-1.91,31.48,7.48,34.7,4.32,1.48,9.45.14,14.44-3.78,5.5-4.31,10-11.07,12.76-19s3.3-16.09,1.6-22.87c-1.55-6.15-4.77-10.35-9.09-11.83A11.8,11.8,0,0,0,246.73,158Z"/><path class="cls-11_search-engine-1-12" d="M244.72,161.63c2.08-1.53,6.8,1,8.3,2.39,12.4,11.61,6.44,33.32-4.3,44.39-4,4.14-13.51,9.81-17,7.45,0,0,15.52,10.49,26.59-1.1s13.77-34,13.77-34L271.39,169l-4.06-7.91-4.12-4.4L253,155.53Z"/><path class="cls-12_search-engine-1-12" d="M246,224.82a19.66,19.66,0,0,1-11.13-.43c-14-4.79-19.47-24.52-12.48-44.91s23.41-32.61,37.39-27.82h0c7,2.39,12.05,8.6,14.28,17.48,2.07,8.27,1.43,18-1.79,27.43s-8.7,17.51-15.4,22.76A28.52,28.52,0,0,1,246,224.82Zm4.53-65.76c-8,1.91-16.4,10.92-20.54,23-5.35,15.59-1.92,31.48,7.48,34.7,4.32,1.48,9.45.13,14.44-3.78,5.49-4.31,10-11.07,12.76-19s3.3-16.1,1.6-22.87c-1.55-6.15-4.78-10.36-9.09-11.84A11.81,11.81,0,0,0,250.5,159.06Z"/><path class="cls-10_search-engine-1-12" d="M264,220.48c.44-.13-3.46-5.52-3.78-6a99.21,99.21,0,0,1-5.14-9.24.56.56,0,0,0-.23-.25,16,16,0,0,0-1-1.77.79.79,0,0,0-1.47.38,9.14,9.14,0,0,0,1.25,5.16c-.38.42-.81.88-1.17,1.36a.34.34,0,0,1,.12.36,2.42,2.42,0,0,1-.4.72,1.4,1.4,0,0,1-.35.42.32.32,0,0,1-.21.09,2.46,2.46,0,0,0,.51,2.08A3.08,3.08,0,0,0,252,216a.93.93,0,0,1,.05.1.31.31,0,0,1,.12,0,22.74,22.74,0,0,1,2.79,1.94.35.35,0,0,1-.11.56,19.82,19.82,0,0,0,2.3.94.67.67,0,0,0,.54,0c.1.09.19.2.3.29a.79.79,0,0,0,1.31-.33,1,1,0,0,0,0-.28c.1.11.18.22.28.32a.91.91,0,0,0,.81,1.15.92.92,0,0,0,1-.72,1.12,1.12,0,0,0,0-.36l.61.91a.21.21,0,0,0,.39-.06.24.24,0,0,0,.06-.09,14.35,14.35,0,0,1,.83,1.63C267.26,228.08,264.05,220.69,264,220.48Z"/><path class="cls-10_search-engine-1-12" d="M262.89,220.34a8.51,8.51,0,0,1-2.11-2.4,1.63,1.63,0,0,0-2.27-.63,11.22,11.22,0,0,1-.09-1.31c0-2.22-3.49-2.26-3.46,0a8.41,8.41,0,0,0,1.34,4.94,14.1,14.1,0,0,0,3.76,3.33,1.77,1.77,0,0,0,2.63-1.34,1.58,1.58,0,0,0,.15-.12A1.72,1.72,0,0,0,262.89,220.34Z"/><path class="cls-11_search-engine-1-12" d="M257.58,221.29a6.07,6.07,0,0,1-2.66-6.74.2.2,0,0,0,0-.17s0,0,0,0l-1.17-2.05c-.17-.31-.36-.61-.51-.93-.24-.55-.54-2.68,1-1.79.47.27,1.07,1.48,1.39,1.95.44.64.86,1.29,1.28,2,.14.23.52,0,.37-.21-.76-1.22-1.56-2.41-2.41-3.56-.39-.54-.8-1.1-1.54-.77a1.35,1.35,0,0,0-.8,1.47c-.27.51-.84.91-.93,1.51a2.94,2.94,0,0,0,.52,1.71l.19.32a.39.39,0,0,0-.08.1c-.24.67-.7,1.4-.2,2a3,3,0,0,0,.78.63c.45.32.91.62,1.37.93a.2.2,0,0,0,.29-.06,7,7,0,0,0,2.93,4.09C257.59,221.82,257.81,221.45,257.58,221.29Zm-5.38-8.43a1.3,1.3,0,0,1,.08-1.44c.11-.16.22-.29.33-.43a15.76,15.76,0,0,0,1.88,3.52.57.57,0,0,1,0,.14.19.19,0,0,0-.22,0C253.28,215.17,252.48,213.53,252.2,212.86Zm.5,3.27a.89.89,0,0,1-.47-.95,5.93,5.93,0,0,1,.31-.86c.46.61,1.09,1.09,1.83.72a5.72,5.72,0,0,0,0,2.22C253.81,216.89,253.24,216.53,252.7,216.13Z"/><path class="cls-13_search-engine-1-12" d="M282,228.63s-10.08.48-12.7-1.94-6.41-10-6.41-10-7,4.46-7.29,7,7.25,15,10.63,15.82"/><path class="cls-11_search-engine-1-12" d="M297.32,352.87s-8.52-3.79-10.57-3.94-5.48.55-2.49,4.31c0,0,9,5.86,10.15,6.05s4-.72,4.12-.41.34,2.57.34,2.57,7.49,2.86,7.82-2.16c0-.65-1.08-9.94-1.08-9.94"/><path class="cls-5_search-engine-1-12 targetColor" d="M307.09,330.92c-1.49-9.63-4.19-19-5.32-28.7-.71-6.13-1.22-12.29-2-18.41s-3-12.06-4.51-18.12a.67.67,0,0,1,.3-.75c-.07-.21-.12-.42-.2-.64-.75-.72-1.53-1.4-2.28-2.05l-10.47,7.05s.06,6.41.39,15.7c1.21,5.41,2.14,10.25,3.51,15.38a1.34,1.34,0,0,0-.32,1.22,433.18,433.18,0,0,1,7.43,49,1.43,1.43,0,0,0,.94,1.22c.1.84.19,1.69.29,2.54,9.11,3.51,11.11-2.61,11.11-2.61s.42-5.21.93-12.46C307.1,336.48,307.15,333.7,307.09,330.92Z" style="fill: rgb(104, 225, 253);"/><path class="cls-10_search-engine-1-12" d="M230,232.69c.54.32,1.13.68,1.8,1.14a23.32,23.32,0,0,1-2.38-3.67c-.67-1.12,1-2,1.83-1.21a72.12,72.12,0,0,0,7.48,7,1.14,1.14,0,0,1,.31.35l1.63,0c.48,0,1,0,1.39,0,.14,0,.26,0,.4,0a1,1,0,0,1,.92.28,4.21,4.21,0,0,1,.61.29,1.15,1.15,0,0,1,.17.14c.53.06,1.07.1,1.6.17a1.17,1.17,0,0,1,.88,1.67l.23-.12c1.21-.75,2.17,1.25,1,2a16.2,16.2,0,0,1-8.48,2.38,1,1,0,0,1-.95.13l-.51-.19a24.5,24.5,0,0,1-7.43-1.55,6.62,6.62,0,0,0-2-.44h0C228.92,238.27,229.48,235.48,230,232.69Z"/><path class="cls-11_search-engine-1-12" d="M278.68,366.87l-5.06,1.82a2.8,2.8,0,0,1-2.05,1.86,1.1,1.1,0,0,1-.7.39c-2.09.32-4-.35-6-1-2.42-.76-11.88-4.38-9.25,2.41,1.72,1.21,3.65,2.26,5.42,3.34,1,.6,2,1.2,3,1.76a5.94,5.94,0,0,0,1.77.82c1.36.21,4.66-.81,4.74-.46s.39,3,.39,3,8.62,3.28,9-2.48C280,377.56,278.68,366.87,278.68,366.87Z"/><path class="cls-5_search-engine-1-12 targetColor" d="M285.8,315.09c1.05-17,1.63-34.14,5.23-50.87.15-4.35,3-1.57,2.78-3.3-1.53-14-21.93,2.67-21.93,2.67-.82.67-.92,5-1.09,5.94-.92,5.37-1.7,10.78-2.37,16.19-3.37,27.34-2.12,54.54-.75,82,4.33,4.43,7.17,5.75,14.15,2.9q2.1-26.93,3.87-53.87C285.73,316.17,285.76,315.63,285.8,315.09Z" style="fill: rgb(104, 225, 253);"/><path class="cls-13_search-engine-1-12" d="M274.89,230.48c.2-.88,2.49-1.48,3.16-1.84,1.58-.86.66-2.35,2.21-3.28a51.8,51.8,0,0,1,7-3.41h.06c3.87-.06,10.36-.21,10.75,5,.61,8-.09,15.88-.71,23.82-.25,3.19-.53,6.35-.81,9.45-.1,1.14-.25,10.33-.92,10.61-7.69,3.18-17.5,2-25-.92C270.62,263.45,272.14,243.47,274.89,230.48Z"/><path class="cls-11_search-engine-1-12" d="M281.79,238.52a13,13,0,0,1-9.54,11.4c0,.52-.16,3.76-.22,4.29,6.14-1.48,10.65-9.17,11.29-15.69C283.42,237.54,281.88,237.54,281.79,238.52Z"/><path class="cls-10_search-engine-1-12" d="M285.53,205.84c-.5.14-4.8,10-3.11,16s11.86-.17,14.42-4.74S295.17,203.35,285.53,205.84Z"/><path class="cls-11_search-engine-1-12" d="M285.67,207.22s0,3.26,2.85,4.31,5.21,1.76,5.06,3.08-5.15-.18-5.17,2.83a22.76,22.76,0,0,0,.82,6c.31,1.48,8.86-3.05,11.68-10.78s-4.23-9.78-4.58-9.83-1-2.16-4.44-2.91-4.44.59-4.44.59a4.18,4.18,0,0,0-5.05.55c-3.19,2.53-2.38,7.16,1.23,9Z"/><path class="cls-13_search-engine-1-12" d="M281.8,224.5s-17.6,10.08-23.94,10.09c-4.59,0-13.64-1.48-18.31-2.31-4.36,3.71-4.65,10.17-1.94,15.12,7.68,1.25,30.46,4.54,37.6,1,8.65-4.28,18.16-10,18.16-10S301.94,229.93,281.8,224.5Z"/><path class="cls-10_search-engine-1-12" d="M231.8,233.83s-2.64-2.16-3.32-1.72-2.29,4.13-2.07,6.31,1.33,4,6.75,4"/></g><g id="plant_search-engine-1-12"><path class="cls-5_search-engine-1-12 targetColor" d="M423.59,262.2l3.88,18.15a4.11,4.11,0,0,0,2.19,2.81c2.27,1.11,6.93,2.27,15.8.66a4.1,4.1,0,0,0,3.29-3.17l4-18.45" style="fill: rgb(104, 225, 253);"/><ellipse class="cls-11_search-engine-1-12" cx="438.16" cy="262.2" rx="14.58" ry="5.97"/><path class="cls-13_search-engine-1-12" d="M429.68,248.77A4.78,4.78,0,0,1,428,247.2l-8.2-12.69c-3.8-5.89-5.18-48,4.77-48.59,7.91-.42,16.05,18.07,18.88,23.47,2.65,5.06,5.55,10.45,7.13,16,2.38,8.31-3,15.59-8.15,22.19C440,250.72,433,250.59,429.68,248.77Z"/><path class="cls-11_search-engine-1-12" d="M434.57,257.09c1.11.77,2.19,1.57,3.25,2.41a154.92,154.92,0,0,0-7.71-55.45c-.68-2.06-3.9-1.06-3.22,1A151.48,151.48,0,0,1,434.57,257.09Z"/><path class="cls-13_search-engine-1-12" d="M446.16,245.37a3,3,0,0,1-.2-1.46l1.12-9.58c.52-4.44,17-25.74,22.1-22,4.07,3,.55,15.41-.25,19.22a56.17,56.17,0,0,1-3,10.75c-2.21,5.06-7.83,6.45-13,7.61C450.42,250.51,447,247.61,446.16,245.37Z"/><path class="cls-14_search-engine-1-12" d="M446.16,245.37a3,3,0,0,1-.2-1.46l1.12-9.58c.52-4.44,17-25.74,22.1-22,4.07,3,.55,15.41-.25,19.22a56.17,56.17,0,0,1-3,10.75c-2.21,5.06-7.83,6.45-13,7.61C450.42,250.51,447,247.61,446.16,245.37Z"/><path class="cls-11_search-engine-1-12" d="M461.3,224a184.64,184.64,0,0,0-17.47,39.35,19.55,19.55,0,0,1,2.4,1.54,182.66,182.66,0,0,1,17.5-39.58C464.64,223.82,462.21,222.51,461.3,224Z"/></g></svg>