<svg version="1.1" id="Layer_1" xmlns="http://www.w3.org/2000/svg" xmlns:xlink="http://www.w3.org/1999/xlink" x="0px" y="0px" viewBox="0 0 500 500" style="width: 158px;" xml:space="preserve" data-imageid="birthday-69" imageName="Birthday" class="illustrations_image">
<style type="text/css">
	.st0_birthday-69{fill:#ED6B84;}
	.st1_birthday-69{opacity:0.68;fill:url(#SVGID_1_);enable-background:new    ;}
	.st2_birthday-69{opacity:0.68;fill:url(#SVGID_00000124160882715116402870000002423738362501347734_);enable-background:new    ;}
	.st3_birthday-69{opacity:0.68;fill:url(#SVGID_00000166654654065288556220000009665398821663641730_);enable-background:new    ;}
	.st4_birthday-69{fill:#29ABE2;}
	.st5_birthday-69{fill:#FFC931;}
	.st6_birthday-69{fill:#FF9D33;}
	.st7_birthday-69{fill:#EA5343;}
	.st8_birthday-69{fill:#AD2B21;}
	.st9_birthday-69{fill:#68E1FD;}
	.st10_birthday-69{fill:#FFD5B2;}
	.st11_birthday-69{fill:#630704;}
</style>
<ellipse id="Base_birthday-69" class="st0_birthday-69" cx="253.9" cy="316.2" rx="215.6" ry="103.4"/>
<g id="Shadow_birthday-69">
	
		<linearGradient id="SVGID_1_-birthday-69" gradientUnits="userSpaceOnUse" x1="86.0287" y1="-338.6445" x2="133.5687" y2="-412.9844" gradientTransform="matrix(1 0 0 1 0 686.58)">
		<stop offset="0" style="stop-color:#630704;stop-opacity:0"/>
		<stop offset="1" style="stop-color:#AD2B21"/>
	</linearGradient>
	<path class="st1_birthday-69" d="M80,366.6l87.2-45.9l-95-18.2l-34,20.3C67.2,363.8,74.9,373.8,80,366.6z"/>
	
		<linearGradient id="SVGID_00000017492445156751137960000017046949623652719265_-birthday-69" gradientUnits="userSpaceOnUse" x1="250.0793" y1="-326.1368" x2="288.0393" y2="-385.4968" gradientTransform="matrix(1 0 0 1 0 686.58)">
		<stop offset="0" style="stop-color:#630704;stop-opacity:0"/>
		<stop offset="1" style="stop-color:#AD2B21"/>
	</linearGradient>
	<path style="opacity:0.68;fill:url(#SVGID_00000017492445156751137960000017046949623652719265_);enable-background:new    ;" d="&#10;&#9;&#9;M275.3,396.3l65.1-41.3l-94.2-54.9l-67.7,36.6C187.2,342.1,266.6,390.7,275.3,396.3z"/>
	
		<linearGradient id="SVGID_00000181046796267591556790000016675341465820105382_-birthday-69" gradientUnits="userSpaceOnUse" x1="183.5306" y1="-271.3359" x2="225.8906" y2="-337.5859" gradientTransform="matrix(1 0 0 1 0 686.58)">
		<stop offset="0" style="stop-color:#630704;stop-opacity:0"/>
		<stop offset="1" style="stop-color:#AD2B21"/>
	</linearGradient>
	<path style="opacity:0.68;fill:url(#SVGID_00000181046796267591556790000016675341465820105382_);enable-background:new    ;" d="&#10;&#9;&#9;M152.6,407.4c7.8,1.4,15.4,3.7,23.1,5.1c9.3,1.7,18.8,3,28.1,4.1c5.4,0.4,10.8,0.6,16.2,0.5l37.5-25l-17.9-7.8l-106.9,17.5l0.4,0.5&#10;&#9;&#9;C139.1,405.4,146.1,406.2,152.6,407.4z"/>
</g>
<g id="Baloon_birthday-69">
	<path class="st4_birthday-69" d="M214.3,259c-0.2,16.7,2.4,33.3,7.7,49.1l1.6-1.7c-0.2-0.7-0.5-1.5-0.7-2.2c-0.7-0.5-1-1.4-0.7-2.2&#10;&#9;&#9;c-3.5-12.2-5.5-24.8-5.9-37.6c2.1,11.6,5.1,22.9,8.9,34l0.2-0.2c0.3-0.3,0.6-0.5,1.1-0.6l0.4-0.4c-2.9-8.6-5.3-17.3-7.2-26.1&#10;&#9;&#9;c0.2-0.2,0.2-0.5,0.1-0.8c-2.8-12.3-2.4-25.4-1.9-37.9c0.5-12.2,1.9-24.4,4.1-36.4c4.4-23.9,12-47.1,22.6-68.9&#10;&#9;&#9;c0.6-1.1-1.2-2.2-1.7-1c-16.3,33.5-25.5,70-27.1,107.2c-0.3,6.9-0.5,13.9-0.1,20.8c-12.5-36.1-12.1-75.5,1.1-111.3&#10;&#9;&#9;c0.4-1.2-1.5-1.7-1.9-0.5c-12.7,34.6-13.6,72.5-2.6,107.7c-12.1-16.3-20.2-35.2-23.8-55.2c-4.2-23.9-1.9-48.4,0.5-72.4&#10;&#9;&#9;c0.1-1.3-1.9-1.3-2,0c-2.4,24.8-4.8,50.1,0,74.8c4.1,21.2,13.3,41,26.7,57.9c0.1,0.1,0.2,0.2,0.4,0.3l0.9,2.6&#10;&#9;&#9;C214.6,258.2,214.3,258.6,214.3,259z"/>
	<path class="st4_birthday-69" d="M252.8,161.2c-17.8,27.3-34.8,57.4-35.1,90.6c-0.1,0.2-0.1,0.3-0.1,0.5c0,0.5,0.1,0.9,0.1,1.4c0,1,0,2,0.1,3&#10;&#9;&#9;c-0.6,0-1,0.4-1,1c0,0.1,0,0.1,0,0.2c0.6,2.5,1.2,5,1.9,7.4c2.1,10.8,4.9,21.4,8.3,31.9c0.6-0.5,1.1-0.9,1.7-1.4&#10;&#9;&#9;c-1.3-4-2.5-8-3.6-12c1.5,3.7,3.2,7.4,5,11c0.6-0.4,1.1-0.7,1.8-1c-4.1-8.3-7.6-16.9-10.3-25.8c-0.9-4.7-1.6-9.5-1.9-14.3&#10;&#9;&#9;c-0.4-33.6,16.9-64,34.9-91.5C255.2,161.1,253.5,160.1,252.8,161.2z"/>
	<path class="st5_birthday-69" d="M287.3,75.3c-18.6-2.8-33,18.1-29.8,36c0.5,2.6,4.3,16,8.2,20.7l-0.2,0.1c-2-0.4-4,0.6-4.7,2.5&#10;&#9;&#9;c-1,2.4,0.9,4.9,3.2,5.6c2.3,0.8,4.9-0.4,5.7-2.7c0.5-1.3,0.3-2.7-0.4-3.9c12.6-0.1,24.6-5.5,33.2-14.8&#10;&#9;&#9;C315.8,104,310.5,78.8,287.3,75.3z"/>
	<path class="st6_birthday-69" d="M263.7,111.6c0.9-7.6,3.7-14.8,8.1-21.1c6.4-9.2,16-14,26.5-11.3c-3.3-2-7-3.4-10.9-3.9&#10;&#9;&#9;c-18.6-2.8-33,18.1-29.8,36c1.3,5.6,3.2,11.1,5.6,16.3C262.6,122.3,262.8,116.9,263.7,111.6z"/>
	<path class="st5_birthday-69" d="M228.5,49.6c-18.8,1.7-27.6,25.5-20.2,42.2c1,2.4,8,14.6,12.9,18.1l-0.1,0.2c-2,0.1-3.7,1.5-4,3.5&#10;&#9;&#9;c-0.4,2.6,2.1,4.6,4.5,4.7c2.5,0.3,4.7-1.5,4.9-4c0.1-1.4-0.4-2.8-1.4-3.7c12.2-3.2,22.6-11.3,28.6-22.4&#10;&#9;&#9;C263.1,70.6,251.8,47.5,228.5,49.6z"/>
	<path class="st6_birthday-69" d="M214.4,90.7c-0.9-7.6,0-15.3,2.7-22.4c4-10.5,12.1-17.5,22.9-17.4c-3.7-1.2-7.6-1.6-11.5-1.2&#10;&#9;&#9;c-18.8,1.7-27.6,25.5-20.2,42.2c2.6,5.1,5.8,10,9.3,14.5C215.9,101.3,214.8,96,214.4,90.7z"/>
	<path class="st7_birthday-69" d="M244.6,80.8c-18.8-1.1-31.2,21-26.3,38.6c0.7,2.5,5.8,15.6,10,19.8l-0.1,0.2c-2-0.2-3.9,1-4.5,2.9&#10;&#9;&#9;c-0.8,2.5,1.4,4.8,3.7,5.3c2.4,0.6,4.8-0.9,5.4-3.3c0.3-1.3,0-2.7-0.8-3.8c12.6-1.3,24-7.7,31.7-17.8&#10;&#9;&#9;C275.7,106.8,268,82.2,244.6,80.8z"/>
	<path class="st8_birthday-69" d="M224.5,119.3c0.2-7.6,2.3-15.1,6.1-21.8c5.6-9.7,14.6-15.5,25.3-13.7c-3.5-1.7-7.3-2.7-11.2-2.9&#10;&#9;&#9;c-18.9-1.1-31.2,21-26.4,38.6c1.8,5.5,4.2,10.7,7,15.8C224.3,130,224.1,124.6,224.5,119.3z"/>
	<path class="st7_birthday-69" d="M192.9,71.8c-18.8,1.7-27.6,25.5-20.2,42.2c1.1,2.4,8.1,14.5,12.9,18.1l-0.1,0.2c-2,0.1-3.7,1.5-4,3.5&#10;&#9;&#9;c-0.4,2.6,2.1,4.6,4.5,4.7c2.5,0.2,4.7-1.6,4.9-4c0.1-1.4-0.4-2.7-1.4-3.7c12.2-3.2,22.6-11.3,28.6-22.4&#10;&#9;&#9;C227.5,92.8,216.2,69.7,192.9,71.8z"/>
	<path class="st8_birthday-69" d="M178.8,112.8c-0.9-7.6,0-15.2,2.7-22.4c4-10.4,12.1-17.5,22.9-17.4c-3.7-1.2-7.6-1.6-11.5-1.2&#10;&#9;&#9;c-18.8,1.7-27.6,25.5-20.2,42.1c2.6,5.1,5.8,10,9.4,14.5C180.3,123.4,179.2,118.2,178.8,112.8z"/>
	<path class="st7_birthday-69" d="M275.3,125.1c-17.9-6-35.6,12.2-35.5,30.4c0,2.6,1.5,16.5,4.5,21.8l-0.2,0.1c-1.9-0.8-4-0.1-5.1,1.6&#10;&#9;&#9;c-1.4,2.2,0.1,5,2.2,6.1c2.2,1.2,4.9,0.4,6.1-1.7c0.7-1.2,0.7-2.6,0.2-3.8c12.5,2,25.2-1.2,35.2-8.9&#10;&#9;&#9;C298.5,158.2,297.5,132.5,275.3,125.1z"/>
	<path class="st8_birthday-69" d="M245.8,156.9c2.2-7.3,6.2-14,11.5-19.4c7.9-7.9,18.2-11.1,28-6.7c-2.9-2.6-6.4-4.5-10.1-5.7&#10;&#9;&#9;c-17.9-6-35.6,12.2-35.5,30.4c0.3,5.8,1.2,11.5,2.7,17.1C242.9,167.2,244,161.9,245.8,156.9z"/>
	<path class="st5_birthday-69" d="M216,114.1c-18.8,1.7-27.6,25.5-20.2,42.1c1.1,2.4,8.1,14.5,12.9,18.1l-0.1,0.2c-2,0.1-3.7,1.5-4,3.5&#10;&#9;&#9;c-0.4,2.6,2.1,4.6,4.5,4.7c2.5,0.2,4.6-1.7,4.8-4.2c0.1-1.3-0.4-2.6-1.3-3.5c12.2-3.2,22.6-11.3,28.6-22.4&#10;&#9;&#9;C250.6,135,239.3,111.9,216,114.1z"/>
	<path class="st6_birthday-69" d="M201.9,155.1c-0.9-7.6,0-15.2,2.7-22.4c4-10.4,12.1-17.5,22.9-17.4c-3.7-1.2-7.6-1.6-11.5-1.2&#10;&#9;&#9;c-18.8,1.7-27.6,25.5-20.2,42.1c2.6,5.1,5.8,10,9.4,14.5C203.4,165.6,202.3,160.4,201.9,155.1z"/>
</g>
<g id="Gift_birthday-69">
	<polyline class="st9_birthday-69 targetColor" points="64.3,264 64.3,308.3 174,308.3 174,264 &#9;" style="fill: rgb(104, 225, 253);"/>
	<path class="st9_birthday-69 targetColor" d="M119.2,282.7c-17.6,0-33.2,3.9-43.3,9.9v31.5c4.3,2.5,8.8,4.4,13.5,5.8v-37.1c-0.1-1.3,0.8-2.5,2.1-2.6&#10;&#9;&#9;s2.5,0.8,2.6,2.1c0,0.2,0,0.3,0,0.5v38.4c4.5,1.1,9,1.8,13.5,2.3v-39.7c-0.1-1.3,0.9-2.5,2.2-2.6c1.3-0.1,2.4,0.8,2.6,2.1&#10;&#9;&#9;c0,0.2,0,0.3,0,0.5v40.1c2.2,0.1,4.5,0.2,6.8,0.2s4.5-0.1,6.8-0.2v-38.3c-0.1-1.3,0.8-2.5,2.1-2.6c1.3-0.1,2.5,0.8,2.6,2.1&#10;&#9;&#9;c0,0.2,0,0.3,0,0.5v37.9c4.6-0.4,9.1-1.2,13.5-2.3v-37.8c-0.1-1.3,0.9-2.5,2.2-2.6c1.3-0.1,2.4,0.8,2.6,2.1c0,0.2,0,0.3,0,0.5v36.5&#10;&#9;&#9;c4.7-1.4,9.3-3.3,13.5-5.8v-31.5C152.4,286.5,136.8,282.7,119.2,282.7z" style="fill: rgb(104, 225, 253);"/>
	<path class="st9_birthday-69 targetColor" d="M64.3,308.3c0,4.5,2.5,8.7,6.8,12.4v-24.8C66.8,299.6,64.3,303.8,64.3,308.3z" style="fill: rgb(104, 225, 253);"/>
	<path class="st9_birthday-69 targetColor" d="M174,308.3c0-4.5-2.5-8.7-6.8-12.4v24.8C171.6,317,174,312.8,174,308.3z" style="fill: rgb(104, 225, 253);"/>
	<path class="st9_birthday-69 targetColor" d="M71.1,295.9v24.8c1.5,1.2,3.1,2.4,4.7,3.4v-31.5C74.2,293.6,72.6,294.7,71.1,295.9z" style="fill: rgb(104, 225, 253);"/>
	<path class="st9_birthday-69 targetColor" d="M89.4,292.7v37.1c1.5,0.5,3.1,0.9,4.7,1.3v-38.4c0.1-1.3-0.8-2.5-2.1-2.6s-2.5,0.8-2.6,2.1l0,0&#10;&#9;&#9;C89.4,292.4,89.4,292.6,89.4,292.7z" style="fill: rgb(104, 225, 253);"/>
	<path class="st9_birthday-69 targetColor" d="M107.7,293.6v39.7c1.6,0.2,3.1,0.3,4.7,0.4v-40.1c0.1-1.3-0.9-2.5-2.2-2.6c-1.3-0.1-2.4,0.8-2.6,2.1&#10;&#9;&#9;C107.7,293.3,107.7,293.5,107.7,293.6z" style="fill: rgb(104, 225, 253);"/>
	<path class="st9_birthday-69 targetColor" d="M125.9,295.5v38.3c1.6-0.1,3.2-0.2,4.7-0.4v-37.9c0.1-1.3-0.8-2.5-2.1-2.6c-1.3-0.1-2.4,0.8-2.6,2.1&#10;&#9;&#9;C125.9,295.1,125.9,295.3,125.9,295.5z" style="fill: rgb(104, 225, 253);"/>
	<path class="st9_birthday-69 targetColor" d="M144.2,293.3v37.8c1.6-0.4,3.2-0.8,4.7-1.3v-36.5c0.2-1.3-0.7-2.5-2-2.7c-1.3-0.2-2.5,0.7-2.7,2&#10;&#9;&#9;c0,0.1,0,0.1,0,0.2C144.2,293,144.2,293.2,144.2,293.3z" style="fill: rgb(104, 225, 253);"/>
	<path class="st9_birthday-69 targetColor" d="M162.5,292.6v31.5c1.7-1,3.2-2.1,4.7-3.4v-24.8C165.7,294.7,164.1,293.6,162.5,292.6z" style="fill: rgb(104, 225, 253);"/>
	<path class="st4_birthday-69" d="M71.1,295.9v24.8c1.5,1.2,3.1,2.4,4.7,3.4v-31.5C74.2,293.6,72.6,294.7,71.1,295.9z"/>
	<path class="st4_birthday-69" d="M89.4,292.7v37.1c1.5,0.5,3.1,0.9,4.7,1.3v-38.4c0.1-1.3-0.8-2.5-2.1-2.6s-2.5,0.8-2.6,2.1l0,0&#10;&#9;&#9;C89.4,292.4,89.4,292.6,89.4,292.7z"/>
	<path class="st4_birthday-69" d="M107.7,293.6v39.7c1.6,0.2,3.1,0.3,4.7,0.4v-40.1c0.1-1.3-0.9-2.5-2.2-2.6c-1.3-0.1-2.4,0.8-2.6,2.1&#10;&#9;&#9;C107.7,293.3,107.7,293.5,107.7,293.6z"/>
	<path class="st4_birthday-69" d="M125.9,295.5v38.3c1.6-0.1,3.2-0.2,4.7-0.4v-37.9c0.1-1.3-0.8-2.5-2.1-2.6c-1.3-0.1-2.4,0.8-2.6,2.1&#10;&#9;&#9;C125.9,295.1,125.9,295.3,125.9,295.5z"/>
	<path class="st4_birthday-69" d="M144.2,293.3v37.8c1.6-0.4,3.2-0.8,4.7-1.3v-36.5c0.2-1.3-0.7-2.5-2-2.7c-1.3-0.2-2.5,0.7-2.7,2&#10;&#9;&#9;c0,0.1,0,0.1,0,0.2C144.2,293,144.2,293.2,144.2,293.3z"/>
	<path class="st4_birthday-69" d="M162.5,292.6v31.5c1.7-1,3.2-2.1,4.7-3.4v-24.8C165.7,294.7,164.1,293.6,162.5,292.6z"/>
	<path class="st9_birthday-69 targetColor" d="M64.3,264v17c0,0,10,19.5,54.9,19.5S174,281,174,281v-17" style="fill: rgb(104, 225, 253);"/>
	<path class="st4_birthday-69" d="M64.3,264v17c0,0,10,19.5,54.9,19.5S174,281,174,281v-17"/>
	<path class="st9_birthday-69 targetColor" d="M75.9,284.1c0.2-1.3-0.7-2.5-2-2.7s-2.5,0.7-2.7,2c0,0.1,0,0.1,0,0.2c0,0.2,0,0.3,0,0.5v11.8&#10;&#9;&#9;c1.5-1.2,3.1-2.4,4.7-3.4V284.1z" style="fill: rgb(104, 225, 253);"/>
	<path class="st9_birthday-69 targetColor" d="M167.2,285.4c0.1-1.3-0.9-2.5-2.2-2.6c-1.3-0.1-2.4,0.8-2.5,2c0,0.2,0,0.3,0,0.5v7.2c1.7,1,3.2,2.1,4.7,3.4&#10;&#9;&#9;V285.4z" style="fill: rgb(104, 225, 253);"/>
	<ellipse class="st9_birthday-69 targetColor" cx="119.2" cy="264" rx="54.9" ry="25.6" style="fill: rgb(104, 225, 253);"/>
	<path class="st7_birthday-69" d="M115.1,255.1c0,0-10.6-26.5-23.8-30.2s-21.7,6-23.2,8.9s-3,23.6,15.7,26.1S115.1,255.1,115.1,255.1z"/>
	<path class="st8_birthday-69" d="M114.8,254.9c-6.5-8.6-16-14.6-26.6-16.7c-5.6-1-12-0.6-16.1,4c-1.6,1.8-2.6,4-2.8,6.4&#10;&#9;&#9;c2.1,5.2,6.4,10,14.8,11.2c17.2,2.3,29.2-3.6,31.1-4.6C115,255.2,114.9,255.1,114.8,254.9z"/>
	<path class="st7_birthday-69" d="M121.1,255.9c0,0,10.6-26.5,23.8-30.2s21.7,6,23.3,8.9s3,23.6-15.7,26.1S121.1,255.9,121.1,255.9z"/>
	<path class="st8_birthday-69" d="M121.5,255.8c6.5-8.6,15.9-14.6,26.5-16.7c5.6-1,12-0.6,16.1,4c1.6,1.8,2.6,4,2.8,6.4&#10;&#9;&#9;c-2.1,5.2-6.4,10-14.8,11.2c-17.2,2.3-29.2-3.6-31.1-4.6C121.2,256,121.3,255.9,121.5,255.8z"/>
	<path class="st8_birthday-69" d="M109.5,257.3L80,279.9l14.5-1.6c0,0,4.9,10.2,5.6,10s19-30.6,19-30.6"/>
	<path class="st8_birthday-69" d="M126.7,257.3l29.5,22.6l-14.5-1.6c0,0-4.9,10.2-5.6,10s-19-30.6-19-30.6"/>
	<path class="st7_birthday-69" d="M106.1,260.4c0,0-3.1-14.1,9-13.5s12.9,8.7,13.2,13.5C128.2,260.4,112.1,264.7,106.1,260.4z"/>
	<path class="st4_birthday-69" d="M75.9,284.1c0.2-1.3-0.7-2.5-2-2.7s-2.5,0.7-2.7,2c0,0.1,0,0.1,0,0.2c0,0.2,0,0.3,0,0.5v11.8&#10;&#9;&#9;c1.5-1.2,3.1-2.4,4.7-3.4V284.1z"/>
	<path class="st4_birthday-69" d="M167.2,285.4c0.1-1.3-0.9-2.5-2.2-2.6c-1.3-0.1-2.4,0.8-2.5,2c0,0.2,0,0.3,0,0.5v7.2c1.7,1,3.2,2.1,4.7,3.4&#10;&#9;&#9;V285.4z"/>
</g>
<g id="Cake_birthday-69">
	<path class="st10_birthday-69" d="M240.6,261.5l-0.1,47.9l82.7,45.5c5.4,2.9,11.9,2.9,17.2,0l97.6-53.2v-48.4"/>
	<path class="st11_birthday-69" d="M243.3,257.1l99.7-57.6c1.7-1,3.7-1,5.4,0l86.7,49.3c2.6,1.5,3.5,4.8,2,7.4c-0.5,0.8-1.2,1.5-2,2l-97.4,56.7&#10;&#9;&#9;c-3.8,2.2-8.4,2.2-12.2,0l-82.4-48.4c-2.6-1.5-3.4-4.8-1.9-7.4C241.7,258.3,242.4,257.6,243.3,257.1L243.3,257.1z"/>
	<path class="st10_birthday-69" d="M402.2,231.9L274.9,237v25.1c0,2.3,1.2,4.3,3.1,5.5l52.6,30.8c2.1,1.2,4.7,1.2,6.9,0l61.3-35.4&#10;&#9;&#9;c2-1.2,3.3-3.3,3.3-5.7L402.2,231.9z"/>
	<path class="st11_birthday-69" d="M275.2,235.1l65.4-37.8c1.5-0.9,3.4-0.9,4.9,0l55.1,31.3c1.6,0.9,2.2,3,1.3,4.6c0,0,0,0,0,0&#10;&#9;&#9;c-0.3,0.5-0.7,1-1.3,1.3l-63.5,37c-1.9,1.1-4.2,1.1-6.1,0l-55.9-32.8c-1-0.6-1.4-1.8-0.8-2.8c0,0,0,0,0,0&#10;&#9;&#9;C274.6,235.6,274.9,235.3,275.2,235.1z"/>
	<path class="st11_birthday-69" d="M429.1,260.2v25.2c0,0-1.6,6.1-7.3,2.3v-23.1L429.1,260.2z"/>
	<path class="st11_birthday-69" d="M426,264.4V289c2.3-0.6,3-3.4,3-3.4v-23.7C428.2,263,427.2,263.8,426,264.4z"/>
	<path class="st11_birthday-69" d="M413.3,270.4v25.2c0,0-1.6,6.1-7.3,2.3v-23.1L413.3,270.4z"/>
	<path class="st11_birthday-69" d="M410.3,274.6v24.5c2.3-0.6,3-3.4,3-3.4V272C412.5,273.1,411.5,274,410.3,274.6z"/>
	<path class="st11_birthday-69" d="M396.3,279.7V305c0,0-1.6,6.1-7.3,2.3v-23.1L396.3,279.7z"/>
	<path class="st11_birthday-69" d="M393.2,283.9v24.5c2.3-0.6,3-3.4,3-3.4v-23.7C395.5,282.4,394.4,283.3,393.2,283.9z"/>
	<path class="st11_birthday-69" d="M380.5,289.8v25.2c0,0-1.6,6.1-7.3,2.3v-23.1L380.5,289.8z"/>
	<path class="st11_birthday-69" d="M377.5,294v24.5c2.3-0.6,3-3.4,3-3.4v-23.7C379.7,292.5,378.7,293.4,377.5,294z"/>
	<path class="st11_birthday-69" d="M363.3,299.1v25.2c0,0-1.6,6.1-7.3,2.3v-23.1L363.3,299.1z"/>
	<path class="st11_birthday-69" d="M360.2,303.3v24.5c2.3-0.6,3-3.4,3-3.4v-23.6C362.5,301.9,361.4,302.7,360.2,303.3z"/>
	<path class="st11_birthday-69" d="M347.5,308.4v25.2c0,0-1.6,6.1-7.3,2.3v-23.1L347.5,308.4z"/>
	<path class="st11_birthday-69" d="M344.5,312.7v24.5c2.3-0.6,3-3.5,3-3.5v-23.6C346.7,311.2,345.7,312.1,344.5,312.7z"/>
	<path class="st11_birthday-69" d="M243.1,265.3v25.2c0,0,1.6,6.1,7.3,2.3v-23.1L243.1,265.3z"/>
	<path class="st11_birthday-69" d="M246.1,269.5v24.5c-2.3-0.6-3-3.4-3-3.4V267C243.9,268.1,244.9,269,246.1,269.5z"/>
	<path class="st11_birthday-69" d="M257.4,273.8v25.2c0,0,1.6,6.1,7.3,2.3v-23L257.4,273.8z"/>
	<path class="st11_birthday-69" d="M260.4,278v24.6c-2.3-0.6-3-3.4-3-3.4v-23.7C258.1,276.6,259.2,277.5,260.4,278z"/>
	<path class="st11_birthday-69" d="M272.3,282.8v25.2c0,0,1.6,6.1,7.3,2.3v-23.1L272.3,282.8z"/>
	<path class="st11_birthday-69" d="M275.3,287v24.5c-2.3-0.6-3-3.4-3-3.4v-23.7C273,285.5,274.1,286.4,275.3,287z"/>
	<path class="st11_birthday-69" d="M287.4,291v25.2c0,0,1.6,6.1,7.3,2.3v-23.1L287.4,291z"/>
	<path class="st11_birthday-69" d="M290.5,295.2v24.5c-2.3-0.6-3-3.4-3-3.4v-23.7C288.2,293.7,289.3,294.6,290.5,295.2z"/>
	<path class="st11_birthday-69" d="M304,301v25.2c0,0,1.6,6.1,7.3,2.3v-23.1L304,301z"/>
	<path class="st11_birthday-69" d="M307.1,305.2v24.5c-2.3-0.6-3-3.4-3-3.4v-23.7C304.8,303.8,305.8,304.6,307.1,305.2z"/>
	<path class="st11_birthday-69" d="M319.6,310v25.2c0,0,1.6,6.1,7.3,2.3v-23L319.6,310z"/>
	<path class="st11_birthday-69" d="M322.6,314.2v24.5c-2.3-0.6-3-3.4-3-3.4v-23.7C320.4,312.8,321.4,313.7,322.6,314.2z"/>
	<path class="st7_birthday-69" d="M363.8,206.8h0.6c1.3,0,2.3,1,2.3,2.3v20.4c0,1.3-1,2.3-2.3,2.3h-0.6c-1.3,0-2.3-1-2.3-2.3v-20.4&#10;&#9;&#9;C361.5,207.8,362.5,206.8,363.8,206.8z"/>
	<path class="st5_birthday-69" d="M363.5,206.9c0,0-2.2-0.9-2-3s3-2.2,2.6-4.2c0,0,4.8,3.4,0.6,7.1"/>
	<path class="st6_birthday-69" d="M365.2,200.8c0,0.5-0.1,1.1-0.4,1.6c-0.4,0.7-1.1,1.2-1.5,1.9c-0.5,0.8-0.4,1.9,0.3,2.6h1.1&#10;&#9;&#9;c1.8-1.2,2.2-3.7,1-5.4C365.6,201.2,365.4,201,365.2,200.8z"/>
	<path class="st7_birthday-69" d="M338,195.3h0.6c1.3,0,2.3,1,2.3,2.3V218c0,1.3-1,2.3-2.3,2.3H338c-1.3,0-2.3-1-2.3-2.3v-20.4&#10;&#9;&#9;C335.7,196.3,336.7,195.3,338,195.3z"/>
	<path class="st5_birthday-69" d="M337.7,195.4c0,0-2.2-0.9-2-2.9s3-2.2,2.6-4.2c0,0,4.8,3.4,0.6,7.1"/>
	<path class="st6_birthday-69" d="M339.4,189.3c0,0.5-0.1,1.1-0.4,1.6c-0.4,0.7-1.1,1.2-1.5,1.9c-0.5,0.8-0.4,1.9,0.3,2.6h1.1&#10;&#9;&#9;c1.8-1.2,2.2-3.7,1-5.4C339.8,189.7,339.6,189.5,339.4,189.3z"/>
	<path class="st7_birthday-69" d="M311.7,211.9h0.6c1.3,0,2.3,1,2.3,2.3v20.4c0,1.3-1,2.3-2.3,2.3h-0.6c-1.3,0-2.3-1-2.3-2.3v-20.4&#10;&#9;&#9;C309.5,212.9,310.5,211.9,311.7,211.9z"/>
	<path class="st5_birthday-69" d="M311.5,212c0,0-2.2-0.9-2-2.9s3-2.2,2.6-4.2c0,0,4.8,3.4,0.6,7.1"/>
	<path class="st6_birthday-69" d="M313.2,205.9c0,0.5-0.1,1.1-0.4,1.6c-0.4,0.7-1.1,1.2-1.5,1.9c-0.5,0.8-0.4,1.9,0.3,2.6h1.1&#10;&#9;&#9;c1.8-1.2,2.2-3.7,1-5.4C313.5,206.3,313.4,206.1,313.2,205.9z"/>
	<path class="st7_birthday-69" d="M351.6,225.5h0.6c1.3,0,2.3,1,2.3,2.3v20.4c0,1.3-1,2.3-2.3,2.3h-0.6c-1.3,0-2.3-1-2.3-2.3v-20.4&#10;&#9;&#9;C349.3,226.6,350.3,225.5,351.6,225.5z"/>
	<path class="st5_birthday-69" d="M351.2,225.6c0,0-2.2-0.9-2-3s3-2.2,2.6-4.2c0,0,4.8,3.4,0.6,7.1"/>
	<path class="st6_birthday-69" d="M353,219.5c0,0.5-0.1,1.1-0.4,1.6c-0.4,0.7-1.1,1.2-1.5,1.9c-0.5,0.8-0.3,1.9,0.3,2.6h1.1&#10;&#9;&#9;c1.8-1.2,2.2-3.7,1-5.4c0,0,0,0,0,0C353.4,219.9,353.2,219.7,353,219.5z"/>
	<path class="st7_birthday-69" d="M326.2,227.3h0.6c1.3,0,2.3,1,2.3,2.3V250c0,1.3-1,2.3-2.3,2.3h-0.6c-1.3,0-2.3-1-2.3-2.3v-20.4&#10;&#9;&#9;C323.9,228.3,324.9,227.3,326.2,227.3z"/>
	<path class="st5_birthday-69" d="M325.8,227.4c0,0-2.2-0.9-2-2.9s3-2.2,2.6-4.2c0,0,4.8,3.4,0.6,7.1"/>
	<path class="st6_birthday-69" d="M327.6,221.3c0,0.5-0.1,1.1-0.4,1.6c-0.4,0.7-1.1,1.2-1.5,1.9c-0.5,0.8-0.4,1.9,0.3,2.6h1.1&#10;&#9;&#9;c1.8-1.2,2.2-3.7,1-5.4c0,0,0,0,0,0C327.9,221.7,327.8,221.5,327.6,221.3z"/>
</g>
<g id="Character_birthday-69">
	<path class="st10_birthday-69" d="M263.7,225.1c0.5-0.8,1.2-1.4,2-1.3s1,1.1,0.8,1.9c0.9-0.3,1.9-0.1,2.6,0.6c0.3,0.5,0.4,1.1,0.2,1.6&#10;&#9;&#9;c1.1-0.1,2.2,0.4,2.8,1.4c0.3,0.7,0.1,1.5-0.6,2c0.4,0.8,1,1.8,0.3,2.6c-3,3.5-4,4.2-6.3,5.4l0,0c-1.2,1.5-2.7,2.7-4.4,3.4&#10;&#9;&#9;c-0.2,0.1-0.5,0.1-0.7,0c-0.4,0.2-0.8,0-1-0.3l0,0l-0.2,0.1l0,0l-0.2,0.1c-0.8,0.4-1.4-0.9-0.7-1.4l0.3-0.2&#10;&#9;&#9;c-0.2-0.1-0.4-0.4-0.4-0.7l0,0l-0.3,0.2c-0.7,0.6-1.7-0.5-1.1-1.1l0.4-0.4l-0.1-0.1l-0.1-0.1c-0.3,0.3-0.6,0.5-1,0.6&#10;&#9;&#9;c-1,0.3-1.5-1.1-0.6-1.5c1.5-0.5,2.7-3.9,3.3-5.2c0.4-0.8,0.8-1.7,1.1-2.6v-2.2c-0.1-0.9,0-1.8,0.3-2.6&#10;&#9;&#9;C260.9,223.7,262.5,224.3,263.7,225.1z"/>
	<path class="st10_birthday-69" d="M188.7,218c0-0.9-0.3-1.8-1.1-2.1s-1.4,0.4-1.7,1.2c-0.6-0.7-1.6-1.1-2.5-0.8c-0.5,0.2-0.9,0.7-1,1.3&#10;&#9;&#9;c-0.9-0.7-2.1-0.8-3.1-0.2c-0.6,0.5-0.8,1.3-0.5,2c-0.8,0.4-1.8,1.1-1.6,2.1c0.8,4.5,1.2,5.7,2.7,7.8l0,0c0.2,1.9,0.9,3.7,2,5.2&#10;&#9;&#9;c0.1,0.2,0.4,0.3,0.6,0.3c0.2,0.3,0.6,0.5,1,0.3l0,0l0.1,0.2l0,0l0.1,0.2c0.5,0.8,1.6,0,1.4-0.8l-0.1-0.4c0.3,0,0.5-0.1,0.7-0.4&#10;&#9;&#9;l0,0l0.1,0.4c0.3,0.8,1.7,0.4,1.5-0.4c0-0.2-0.1-0.4-0.1-0.6h0.3c0.1,0.4,0.3,0.7,0.6,1c0.6,0.8,1.9-0.2,1.2-1&#10;&#9;&#9;c-1-1.2-0.3-4.7-0.2-6.2c0.1-0.9,0.2-1.9,0.3-2.8l1.1-1.9c0.6-0.7,1-1.5,1.1-2.4C191.8,218.2,190.1,217.8,188.7,218z"/>
	<path class="st8_birthday-69" d="M253,376.6c0,0,5.8-10.2,7.7-12.1s5.8,0.5,6.9,3.8s-1.9,11-3.3,13.4s-6.1,8.6-6.6,10.5s-9.6,0-12,0&#10;&#9;&#9;s-2.5-13.8-2.5-13.8"/>
	<path class="st4_birthday-69" d="M201.8,292.1l-4.6,43.1c0,0,1.6,13.5,13.4,13.1s14-36.9,14-36.9l2-22.4"/>
	<path class="st4_birthday-69" d="M231.2,292.2c0,0,13.7,37.4,17.6,50.9s12.3,35,12.3,35c-4.5,7.2-13.7,9.9-21.4,6.3c0,0-23.4-70.7-24.1-70.9&#10;&#9;&#9;s-13.4-21.4-2.4-27.2S231.2,292.2,231.2,292.2z"/>
	<path class="st9_birthday-69 targetColor" d="M257.1,231.4c-5.2,6.4-15.4,18.9-18.5,21.5c-4.2,3.6-10.3,2.3-12.1,2.5l-12.3-6.1c0,0-12.4,1.4-17-2.8&#10;&#9;&#9;c-3.5-3.3-4.9-15.4-5.4-20.8c-4.9,0-9.6,1.5-13.6,4.3c0.3,4.8,1.5,18,5.4,23.1c4.9,6.3,19.6,14.5,19.6,14.5l-1.7,23.5&#10;&#9;&#9;c12.5,3.6,29.6,1,29.6,1l12.6-26.6c6.5-1.9,19.9-18.6,24.6-26.6C265.3,235.7,261.4,233,257.1,231.4z" style="fill: rgb(104, 225, 253);"/>
	<path class="st8_birthday-69" d="M209.6,243.2c0,0-5.5,4.6-4.7,8.6s-0.5,9.1-3.5,9.6s-4.6,2-4,4.1c-0.6,2.1-2.5,3.6-4.6,3.8&#10;&#9;&#9;c-4,0.6-3.7,6.9-3.6,7.3s17,8.4,28.4,6c0,0,1.2-4.7,4.1-6.1s1.7-3.5,1.1-5.8s-1.2-6.1,1.7-7.5s1.2-5.4,1.8-6.8s3-3.2,2.9-6.7&#10;&#9;&#9;s-4.2-13.3-9.8-13.6S209.6,243.2,209.6,243.2z"/>
	<path class="st9_birthday-69 targetColor" d="M209.6,243.2l9-23l8.5,23C227.1,243.2,219.7,250.6,209.6,243.2z" style="fill: rgb(104, 225, 253);"/>
	<path class="st4_birthday-69" d="M182.3,318.2c-3,6.2-4,13.1-2.8,19.9c0.1,0.1,0.3,0.3,0.5,0.4c16.1,9.9,30.8,9.9,30.8,9.9l-0.6-19.4&#10;&#9;&#9;C200.8,325.4,191.7,321.2,182.3,318.2z"/>
	<path class="st11_birthday-69" d="M182.3,318.2c0,0,5,1.9,5.8,9s-1.8,11.9-8.1,11.3S173.9,319.6,182.3,318.2z"/>
	<path class="st8_birthday-69" d="M176,356.6c0.2-0.1,7.4-1.9,7.6-5.5s-0.5-9.9,0-12.2s3.4-2.6,3.4-2.6v-8.5c0,0-4.7-4.9-10.9-4.4"/>
	<path class="st11_birthday-69" d="M171.9,324.5c0,0,7.8-3.2,9.6,1.2s-1.7,13.1-1.4,16.5s1.2,15.3-5.6,14.3S169.6,340,171.9,324.5z"/>
</g>
</svg>